<?xml version="1.0" standalone="no"?>
<!DOCTYPE svg PUBLIC "-//W3C//DTD SVG 20010904//EN"
 "http://www.w3.org/TR/2001/REC-SVG-20010904/DTD/svg10.dtd">
<svg version="1.0" xmlns="http://www.w3.org/2000/svg"
 width="1280.000000pt" height="879.000000pt" viewBox="0 0 1280.000000 879.000000"
 preserveAspectRatio="xMidYMid meet">
<metadata>
Created by potrace 1.16, written by Peter Selinger 2001-2019
</metadata>
<g transform="translate(0.000000,879.000000) scale(0.100000,-0.100000)"
fill="#000000" stroke="none">
<path d="M7005 8749 c-74 -40 -91 -46 -79 -27 4 7 3 8 -5 4 -6 -4 -9 -11 -6
-16 3 -5 -26 -25 -64 -45 -76 -38 -86 -41 -75 -23 4 7 3 8 -5 4 -6 -4 -9 -11
-6 -16 3 -4 -2 -11 -11 -14 -22 -9 -26 -8 -18 6 4 7 3 8 -5 4 -6 -4 -9 -11 -6
-16 3 -5 -26 -25 -64 -45 -76 -38 -86 -41 -75 -23 4 7 3 8 -5 4 -6 -4 -9 -11
-6 -16 5 -8 -311 -180 -329 -180 -4 0 -4 5 0 12 4 7 3 8 -5 4 -6 -4 -9 -11 -6
-16 5 -8 -311 -180 -329 -180 -4 0 -4 5 0 12 4 7 3 8 -5 4 -6 -4 -9 -11 -6
-16 3 -5 -26 -25 -64 -45 -76 -38 -86 -41 -75 -23 4 7 3 8 -5 4 -6 -4 -9 -11
-6 -16 3 -5 -26 -25 -64 -45 -76 -38 -86 -41 -75 -23 4 7 3 8 -5 4 -6 -4 -9
-11 -6 -16 3 -5 -35 -30 -84 -55 -97 -48 -106 -51 -95 -33 4 7 3 8 -5 4 -6 -4
-9 -11 -6 -16 3 -5 -26 -25 -64 -45 -76 -38 -86 -41 -75 -23 4 7 3 8 -5 4 -6
-4 -9 -11 -6 -16 3 -5 -35 -30 -84 -55 -97 -48 -106 -51 -95 -33 4 7 3 8 -5 4
-6 -4 -9 -11 -6 -16 3 -5 -26 -25 -64 -45 -76 -38 -86 -41 -75 -23 4 7 3 8 -5
4 -6 -4 -9 -11 -6 -16 5 -8 -311 -180 -329 -180 -4 0 -4 5 0 12 4 7 3 8 -5 4
-6 -4 -9 -11 -6 -16 4 -7 -611 -340 -629 -340 -4 0 -4 5 0 12 4 7 3 8 -5 4 -6
-4 -9 -11 -6 -16 3 -5 -35 -30 -84 -55 -97 -48 -106 -51 -95 -33 4 7 3 8 -5 4
-6 -4 -9 -11 -6 -16 3 -5 -26 -25 -64 -45 -76 -38 -86 -41 -75 -23 4 7 3 8 -5
4 -6 -4 -9 -11 -6 -16 4 -7 -312 -180 -330 -180 -3 0 -3 5 1 12 4 7 3 8 -5 4
-6 -4 -9 -11 -6 -16 5 -8 -311 -180 -329 -180 -4 0 -4 5 0 12 4 7 3 8 -5 4 -6
-4 -9 -11 -6 -16 4 -7 -611 -340 -629 -340 -4 0 -4 5 0 12 4 7 3 8 -5 4 -6 -4
-9 -11 -6 -15 4 -8 -312 -181 -329 -181 -4 0 -4 5 0 12 4 7 3 8 -5 4 -6 -4 -9
-11 -6 -15 4 -8 -312 -181 -329 -181 -4 0 -4 5 0 12 4 7 3 8 -5 4 -6 -4 -9
-11 -6 -16 4 -7 -312 -180 -330 -180 -3 0 -3 5 1 12 4 7 3 8 -5 4 -6 -4 -9
-11 -6 -16 8 -12 -300 -171 -318 -164 -8 3 -18 1 -22 -5 -3 -7 0 -8 9 -5 9 3
16 4 16 1 0 -12 -329 -177 -343 -171 -8 3 -18 1 -22 -5 -3 -7 0 -8 9 -5 9 3
16 4 16 1 0 -3 -105 -60 -232 -127 -128 -67 -247 -133 -264 -146 -37 -27 -70
-91 -90 -172 -18 -78 -18 -350 1 -487 41 -289 137 -638 244 -884 40 -92 52
-132 30 -101 -9 13 -10 13 -6 0 2 -8 10 -15 18 -15 8 0 14 -10 13 -22 0 -12 4
-21 10 -20 6 1 11 -8 10 -20 0 -12 3 -20 7 -17 10 6 81 -124 74 -136 -4 -6 -1
-9 6 -8 6 2 14 -3 17 -11 3 -9 0 -11 -9 -6 -8 5 -11 4 -6 -1 5 -5 12 -9 16 -9
13 0 111 -124 109 -137 -2 -7 4 -12 12 -13 8 0 15 -5 15 -12 0 -6 4 -15 9 -20
5 -5 6 -3 2 5 -11 19 9 14 27 -6 10 -10 14 -22 10 -27 -5 -4 -2 -5 5 -1 6 4
24 -1 40 -12 15 -10 78 -47 140 -81 61 -35 110 -67 107 -71 -3 -5 0 -12 6 -16
8 -4 9 -3 5 4 -10 17 -1 15 45 -8 22 -12 37 -25 34 -30 -3 -5 0 -12 6 -16 8
-4 9 -3 5 4 -10 16 -1 15 36 -4 25 -13 28 -18 17 -26 -11 -8 -10 -8 5 -4 21 7
169 -70 161 -84 -3 -5 0 -12 6 -16 8 -4 9 -3 5 4 -11 19 0 15 80 -29 56 -31
72 -44 62 -51 -9 -7 -8 -8 6 -4 21 7 169 -70 161 -84 -3 -5 0 -12 6 -16 8 -4
9 -3 5 4 -4 7 -4 12 -1 12 17 0 224 -123 220 -130 -3 -5 0 -12 6 -16 8 -4 9
-3 5 4 -12 19 3 14 80 -29 41 -22 72 -44 69 -49 -3 -5 0 -12 6 -16 8 -4 9 -3
5 4 -10 16 -1 15 35 -3 16 -9 27 -20 24 -25 -3 -5 0 -12 6 -16 8 -4 9 -3 5 4
-10 16 -1 15 35 -3 17 -9 27 -21 23 -27 -4 -7 -3 -8 4 -4 6 4 30 -3 53 -15 33
-16 39 -23 28 -31 -11 -8 -10 -8 5 -4 21 7 169 -70 161 -84 -3 -5 0 -12 6 -16
8 -4 9 -3 5 4 -4 7 -4 12 -1 12 10 0 225 -121 225 -127 0 -3 -7 -2 -16 1 -9 3
-12 2 -9 -5 4 -6 14 -8 22 -5 18 7 166 -72 158 -84 -3 -5 0 -12 6 -16 8 -4 9
-3 5 4 -10 16 -1 15 35 -3 16 -9 27 -20 24 -25 -3 -5 0 -12 6 -16 8 -4 9 -3 5
4 -12 19 3 14 81 -29 56 -31 72 -44 62 -51 -11 -7 -9 -8 5 -4 21 7 169 -70
161 -84 -3 -5 0 -12 6 -16 8 -4 9 -3 5 4 -4 7 -4 12 -1 12 10 0 225 -121 225
-127 0 -3 -7 -2 -16 1 -9 3 -12 2 -9 -5 4 -6 14 -8 22 -5 18 7 166 -72 158
-84 -3 -5 0 -12 6 -16 8 -4 9 -3 5 4 -10 16 -1 15 35 -3 16 -9 27 -20 24 -25
-3 -5 0 -12 6 -16 8 -4 9 -3 5 4 -12 19 3 14 81 -29 56 -31 72 -44 62 -51 -11
-7 -9 -8 5 -4 21 7 169 -70 161 -84 -3 -5 0 -12 6 -16 8 -4 9 -3 5 4 -11 17 2
15 45 -10 21 -11 36 -25 33 -29 -2 -4 1 -11 7 -15 8 -4 9 -3 5 4 -4 7 -4 12
-1 12 17 0 224 -123 220 -130 -3 -5 0 -12 6 -16 8 -4 9 -3 5 4 -10 16 -1 15
35 -3 16 -9 27 -20 24 -25 -3 -5 0 -12 6 -16 8 -4 9 -3 5 4 -4 7 -4 12 0 12
18 0 383 -213 379 -220 -3 -5 0 -12 6 -16 8 -4 9 -3 5 4 -10 16 -1 15 35 -3
17 -9 27 -21 23 -27 -4 -7 -3 -8 4 -4 6 4 30 -3 53 -15 28 -14 38 -24 30 -29
-10 -5 -8 -9 4 -13 9 -4 13 -3 10 3 -11 17 5 11 81 -31 41 -22 72 -44 69 -49
-3 -5 0 -12 6 -16 8 -4 9 -3 5 4 -10 16 -1 15 35 -3 17 -9 27 -21 23 -27 -4
-7 -3 -8 5 -4 14 9 323 -162 316 -174 -3 -5 0 -12 6 -16 8 -4 9 -3 5 4 -10 16
-1 15 35 -3 16 -9 27 -20 24 -25 -3 -5 0 -12 6 -16 8 -4 9 -3 5 4 -12 19 3 14
81 -29 46 -26 71 -44 63 -49 -8 -5 -7 -9 5 -13 9 -4 13 -3 10 3 -11 17 5 11
81 -31 41 -22 72 -44 69 -49 -3 -5 0 -12 6 -16 8 -4 9 -3 5 4 -9 16 3 15 34
-3 14 -7 25 -19 25 -26 0 -7 7 -14 15 -16 13 -4 13 -3 0 6 -9 7 -10 11 -3 11
6 0 15 -5 18 -10 8 -13 105 -10 102 3 -1 5 4 12 12 15 9 3 11 0 6 -9 -5 -8 -4
-11 1 -6 5 5 9 14 9 20 0 7 8 11 18 11 9 -1 14 2 12 7 -3 4 28 31 69 59 77 51
93 59 80 38 -4 -7 -3 -8 5 -4 6 4 9 11 6 15 -4 7 366 261 381 261 3 0 2 -5 -2
-12 -4 -7 -3 -8 5 -4 6 4 9 11 6 16 -3 4 6 15 20 24 29 19 39 20 29 4 -4 -8
-3 -10 2 -5 5 5 9 14 9 20 0 5 6 12 14 15 9 3 11 0 6 -9 -5 -8 -4 -11 1 -6 5
5 9 14 9 20 0 5 6 12 14 15 9 3 11 0 6 -8 -5 -9 -4 -11 4 -6 6 4 9 11 6 15 -2
5 13 20 35 35 43 28 55 32 44 14 -4 -7 -3 -8 5 -4 6 4 9 11 6 16 -5 8 435 310
450 310 4 0 3 -6 -1 -12 -4 -8 -3 -10 2 -5 5 5 9 14 9 20 0 5 6 12 14 15 9 3
11 0 6 -9 -5 -8 -4 -11 1 -6 5 5 9 14 9 20 0 5 6 12 14 15 9 3 11 0 6 -9 -5
-8 -4 -11 1 -6 5 5 9 14 9 20 0 5 6 12 14 15 9 3 11 0 6 -9 -5 -8 -4 -11 1 -6
5 5 9 14 9 20 0 5 6 12 14 15 9 3 11 0 6 -9 -5 -8 -4 -11 1 -6 5 5 9 14 9 20
0 5 6 12 14 15 9 3 11 0 6 -9 -5 -8 -4 -11 1 -6 5 5 9 14 9 20 0 7 8 11 17 11
10 -1 16 3 15 10 -1 6 6 10 15 10 10 -1 15 2 13 7 -5 7 495 349 510 349 4 0 3
-5 -1 -12 -4 -7 -3 -8 5 -4 6 4 9 11 6 16 -3 4 6 15 20 24 29 19 39 20 29 4
-4 -8 -3 -10 2 -5 5 5 9 14 9 20 0 5 6 12 14 15 9 3 11 0 6 -9 -5 -8 -4 -11 1
-6 5 5 9 14 9 20 0 5 6 12 14 15 9 3 11 0 6 -9 -5 -8 -4 -11 1 -6 5 5 9 14 9
20 0 5 6 12 14 15 9 3 11 0 6 -9 -5 -8 -4 -11 1 -6 5 5 9 14 9 20 0 5 6 12 14
15 9 3 11 0 6 -9 -5 -8 -4 -11 1 -6 5 5 9 14 9 20 0 5 6 12 14 15 9 3 11 0 6
-8 -5 -9 -4 -11 4 -6 6 4 9 11 6 16 -3 5 5 16 17 24 26 19 42 21 32 4 -4 -7
-3 -8 5 -4 6 4 9 11 6 16 -5 8 255 190 270 190 4 0 3 -5 -1 -11 -4 -8 0 -8 15
0 25 14 28 23 4 15 -12 -4 -9 1 7 15 27 23 45 28 34 9 -4 -7 -3 -8 5 -4 6 4 9
11 6 15 -2 5 13 20 35 35 44 29 55 32 44 14 -4 -8 -3 -10 2 -5 5 5 9 14 9 20
0 5 6 12 14 15 9 3 11 0 6 -9 -5 -8 -4 -11 1 -6 5 5 9 14 9 20 0 5 6 12 14 15
9 3 11 0 6 -9 -5 -8 -4 -11 1 -6 5 5 9 14 9 20 0 5 6 12 14 15 9 3 11 0 6 -9
-5 -8 -4 -11 1 -6 5 5 9 14 9 20 0 7 8 11 17 11 10 -1 16 3 15 8 -1 6 4 13 12
16 9 3 11 0 6 -9 -5 -8 -4 -11 1 -6 5 5 9 14 9 20 0 7 8 11 17 11 10 -1 16 3
15 10 -1 6 6 10 15 10 10 -1 15 2 13 7 -5 7 525 369 540 369 4 0 3 -6 -1 -12
-4 -8 -3 -10 2 -5 5 5 9 14 9 20 0 5 6 12 14 15 9 3 11 0 6 -9 -5 -8 -4 -11 1
-6 5 5 9 14 9 20 0 5 6 12 14 15 9 3 11 0 6 -9 -5 -8 -4 -11 1 -6 5 5 9 14 9
20 0 5 6 12 14 15 9 3 11 0 6 -9 -5 -8 -4 -11 1 -6 5 5 9 14 9 20 0 5 6 12 14
15 9 3 11 0 6 -9 -5 -8 -4 -11 1 -6 5 5 9 14 9 20 0 5 6 12 14 15 9 3 11 0 6
-9 -5 -8 -4 -11 1 -6 5 5 9 14 9 20 0 5 6 12 14 15 9 3 11 0 6 -9 -5 -8 -4
-11 1 -6 5 5 9 14 9 20 0 5 6 12 14 15 9 3 11 0 6 -8 -5 -9 -4 -11 4 -6 6 4 9
11 6 16 -3 5 42 41 99 80 105 70 123 80 110 59 -4 -8 0 -8 15 0 25 14 28 23 4
15 -12 -4 -9 1 7 15 27 23 45 28 34 9 -4 -7 -3 -8 5 -4 6 4 9 11 6 16 -3 4 6
15 20 24 29 19 39 20 29 4 -4 -7 -3 -8 5 -4 6 4 9 11 6 16 -3 4 6 15 20 24 29
19 39 20 29 4 -4 -7 -3 -8 5 -4 6 4 9 11 6 16 -3 4 6 15 20 24 29 19 39 20 29
4 -4 -8 -3 -10 2 -5 5 5 9 14 9 20 0 7 8 11 17 11 10 -1 16 3 15 8 -1 6 4 13
12 16 9 3 11 0 6 -9 -5 -8 -4 -11 1 -6 5 5 9 14 9 20 0 7 8 11 17 11 10 -1 16
3 15 8 -1 6 4 13 12 16 9 3 11 0 6 -9 -5 -8 -4 -11 1 -6 5 5 9 14 9 20 0 7 8
11 17 11 10 -1 16 3 15 8 -1 6 4 13 12 16 9 3 11 0 6 -9 -5 -8 -4 -11 1 -6 5
5 9 14 9 20 0 7 8 11 18 11 9 -1 14 2 12 7 -5 7 495 349 510 349 4 0 3 -6 -1
-12 -4 -8 -3 -10 2 -5 5 5 9 14 9 19 0 6 6 13 14 16 9 3 11 0 6 -8 -5 -9 -4
-11 4 -6 6 4 9 11 6 16 -3 4 6 15 20 24 29 19 39 20 29 4 -4 -7 -3 -8 5 -4 6
4 9 11 6 16 -3 4 6 15 20 24 29 19 39 20 29 4 -4 -7 -3 -8 5 -4 6 4 9 11 6 16
-3 4 6 15 20 24 29 19 39 20 29 4 -4 -7 -3 -8 5 -4 6 4 9 11 6 16 -5 8 195
150 210 150 4 0 3 -5 -1 -12 -4 -7 -3 -8 5 -4 6 4 9 11 6 16 -3 4 6 15 20 24
29 19 39 20 29 4 -4 -7 -3 -8 5 -4 6 4 9 11 6 16 -3 4 6 15 20 24 29 19 39 20
29 4 -4 -7 -3 -8 5 -4 6 4 9 11 6 16 -3 4 6 15 20 24 29 19 39 20 29 4 -4 -7
-3 -8 5 -4 6 4 9 11 6 16 -3 4 6 15 20 24 29 19 39 20 29 4 -4 -8 -3 -10 2 -5
5 5 9 14 9 19 0 6 6 13 14 16 9 3 11 0 6 -9 -5 -8 -4 -11 1 -6 5 5 9 14 9 20
0 5 6 12 14 15 9 3 11 0 6 -9 -5 -8 -4 -11 1 -6 5 5 9 14 9 20 0 7 8 11 17 11
10 -1 16 3 15 8 -1 6 4 13 12 16 9 3 11 0 6 -9 -5 -8 -4 -11 1 -6 5 5 9 14 9
20 0 7 8 11 17 11 10 -1 16 3 15 8 -1 6 4 13 12 16 9 3 11 0 6 -9 -5 -8 -4
-11 1 -6 5 5 9 14 9 20 0 7 8 11 18 11 9 -1 14 2 12 7 -5 7 585 409 600 409 4
0 3 -5 -1 -12 -4 -7 -3 -8 5 -4 6 4 9 11 6 16 -3 4 6 15 20 24 29 19 39 20 29
4 -4 -7 -3 -8 5 -4 6 4 9 11 6 16 -3 4 6 15 20 24 29 19 39 20 29 4 -4 -7 -3
-8 5 -4 6 4 9 11 6 16 -3 5 5 16 17 24 26 19 42 21 32 4 -4 -7 -3 -8 5 -4 6 4
9 11 6 16 -3 5 15 23 39 39 47 33 62 38 50 20 -4 -8 0 -8 15 0 25 14 28 23 4
15 -12 -4 -9 1 7 15 27 23 45 28 34 9 -4 -7 -3 -8 5 -4 6 4 9 11 6 16 -3 4 6
15 20 24 29 19 39 20 29 4 -4 -7 -3 -8 5 -4 6 4 9 11 6 16 -6 10 42 43 54 36
4 -3 8 17 10 44 2 56 -17 102 -54 126 -14 9 -22 20 -19 25 3 5 -1 6 -8 4 -7
-3 -96 29 -197 70 -101 41 -186 73 -189 70 -3 -2 16 -48 42 -102 38 -78 44
-99 34 -109 -7 -7 -1480 -988 -3272 -2179 -3217 -2139 -3260 -2167 -3285
-2152 -14 8 -609 339 -1321 734 -3368 1872 -3787 2106 -3808 2126 -13 12 -48
58 -77 102 -197 297 -356 831 -372 1245 -6 155 8 300 28 300 9 0 5088 -2654
5267 -2752 45 -24 82 -38 96 -36 12 3 1473 922 3246 2043 1774 1122 3250 2054
3280 2072 30 18 60 31 67 29 7 -3 12 0 10 6 -1 6 4 13 12 16 9 3 11 0 6 -8 -5
-9 -4 -11 4 -6 6 4 9 11 6 16 -3 4 10 18 29 29 37 24 51 27 40 9 -4 -7 -3 -8
5 -4 6 4 9 11 6 16 -3 4 17 22 43 39 51 33 68 38 56 19 -4 -7 -3 -8 5 -4 6 4
9 11 6 16 -2 4 54 45 125 90 72 45 135 91 141 102 14 26 4 79 -21 111 -25 31
-26 44 -2 26 14 -11 13 -10 -2 9 -20 23 -32 30 -21 12 8 -12 -8 -13 -20 -1 -6
5 -95 41 -200 79 -104 39 -341 127 -525 196 -184 68 -414 154 -510 189 -96 36
-272 101 -390 145 -333 124 -630 235 -862 321 -117 44 -328 122 -468 174 -140
52 -361 134 -490 182 -129 48 -383 143 -565 210 -181 68 -409 152 -505 188
-214 79 -737 274 -880 328 -139 52 -188 52 -285 -2z"/>
</g>
</svg>
